<?xml version="1.0" encoding="UTF-8" standalone="no"?>
<!-- Created with Inkscape (http://www.inkscape.org/) -->

<svg
   width="60.944054mm"
   height="14.112358mm"
   viewBox="0 0 60.944054 14.112358"
   version="1.1"
   id="svg1"
   xmlns="http://www.w3.org/2000/svg"
   xmlns:svg="http://www.w3.org/2000/svg">
  <defs
     id="defs1" />
  <g
     id="layer1"
     transform="translate(-43.64087,-73.053231)">
    <path
       style="fill:#000000;fill-opacity:1;stroke:none;stroke-width:0.0256291"
       d="m 56.754865,87.151365 c -0.18456,-0.0585 -0.36659,-0.32016 -0.59667,-0.85755 -0.0398,-0.0931 -0.14513,-0.35263 -0.23368,-0.57641 -0.23418,-0.59148 -0.31232,-0.7799 -0.44567,-1.07478 -0.39566,-0.87497 -0.82327,-1.55334 -1.35705,-2.15297 -0.18534,-0.20819 -0.49386,-0.50185 -0.7265,-0.69146 -0.51099,-0.41652 -1.12719,-0.77433 -1.76645,-1.02574 -0.0708,-0.0279 -0.13005,-0.052 -0.13166,-0.0533 -0.001,-0.001 1.06796,-0.002 2.37672,-0.002 h 2.37956 l -0.76284,0.76285 -0.76283,0.76287 h 2.12581 2.12582 l -0.76284,-0.76287 -0.76283,-0.76285 2.38689,2e-4 2.38691,1.9e-4 -0.13449,0.0538 c -1.51273,0.60501 -2.63953,1.6065 -3.46769,3.0821 -0.27634,0.49237 -0.47073,0.91858 -0.84282,1.84789 -0.23064,0.57608 -0.31684,0.77438 -0.42668,0.98171 -0.14119,0.26667 -0.27496,0.42035 -0.40578,0.46652 -0.058,0.0205 -0.13555,0.0215 -0.1952,0.002 z m 1.80077,-1.77489 c 0,-0.0157 0.18384,-0.43271 0.28448,-0.6457 0.67031,-1.41863 1.53386,-2.39113 2.70257,-3.04364 0.19545,-0.10924 0.68214,-0.3417 0.69276,-0.33108 0.001,0.001 -0.0549,0.0483 -0.12491,0.1045 -0.42542,0.34169 -0.81822,0.74581 -1.26398,1.30041 -0.17031,0.2119 -0.25375,0.32077 -0.64436,0.84084 -0.18489,0.24614 -0.37869,0.50157 -0.43067,0.56761 -0.43111,0.54764 -0.79576,0.91796 -1.15152,1.16939 -0.0605,0.0428 -0.0645,0.0451 -0.0645,0.0376 z m -3.4956,-0.0609 c -0.19528,-0.139 -0.35336,-0.27557 -0.56648,-0.48922 -0.27939,-0.2801 -0.50588,-0.54692 -0.91866,-1.08226 -0.54168,-0.70251 -0.66558,-0.86017 -0.83679,-1.06461 -0.4806,-0.57391 -0.9106,-0.99401 -1.36355,-1.33218 -0.10659,-0.0796 -0.10571,-0.0787 -0.061,-0.0611 0.56346,0.22053 0.99137,0.44832 1.4274,0.75982 0.39712,0.28368 0.77847,0.64042 1.105,1.0337 0.35866,0.43198 0.70985,0.99663 0.99726,1.60345 0.11384,0.24046 0.30681,0.68246 0.30048,0.68839 -10e-4,10e-4 -0.0388,-0.0241 -0.0835,-0.0559 z m -10.14778,-1.887 c -0.27321,-0.022 -0.53688,-0.1264 -0.7527,-0.29831 -0.0653,-0.0521 -0.18519,-0.17304 -0.23152,-0.23377 -0.14387,-0.18853 -0.23685,-0.40977 -0.27505,-0.65438 -0.011,-0.0737 -0.0121,-0.18898 -0.0121,-2.12585 0,-2.27688 -0.002,-2.09153 0.0446,-2.28521 0.11735,-0.47167 0.50418,-0.86253 0.97635,-0.98643 0.1833,-0.0482 -0.0219,-0.0443 2.38318,-0.0443 2.04658,0 2.16679,5.9e-4 2.23065,0.0121 0.16037,0.0288 0.28013,0.068 0.41127,0.1345 0.39937,0.20277 0.66579,0.57238 0.74249,1.03004 0.011,0.064 0.0121,0.14371 0.0141,0.79823 l 0.002,0.72716 -1.99234,0.001 -1.99233,0.001 -0.0645,0.014 c -0.23328,0.0526 -0.38962,0.16336 -0.47438,0.33583 -0.0387,0.0787 -0.0545,0.14701 -0.0545,0.23548 0,0.0873 0.008,0.13588 0.0349,0.20502 0.0661,0.17171 0.22111,0.30709 0.42112,0.36772 0.14371,0.0436 -0.03,0.0401 2.14659,0.0427 l 1.97537,10e-4 -0.002,0.73389 c -0.002,0.80563 -10e-4,0.78219 -0.0455,0.95124 -0.10317,0.39888 -0.36949,0.72287 -0.74074,0.90114 -0.12923,0.0621 -0.23881,0.0963 -0.39534,0.12356 -0.0633,0.011 -0.20385,0.0121 -2.17671,0.0121 -1.15989,5.8e-4 -2.13787,-10e-4 -2.1733,-0.004 z m 19.55644,0.002 c -0.17839,-0.011 -0.35789,-0.059 -0.52553,-0.14088 -0.14419,-0.0705 -0.23598,-0.13524 -0.35492,-0.25087 -0.21967,-0.21348 -0.35358,-0.47455 -0.40537,-0.79031 -0.011,-0.0636 -0.0121,-0.15093 -0.0141,-0.80525 l -0.002,-0.73404 h 1.10911 1.109121 l 10e-4,0.76546 0.001,0.76543 1.26127,-0.85385 c 0.69368,-0.4696 1.3238,-0.89613 1.40027,-0.94779 0.40478,-0.27357 0.47658,-0.32344 0.47452,-0.32951 -0.001,-0.002 -0.70735,-0.48281 -1.56916,-1.0648 l -1.5669,-1.05814 -0.001,0.75809 -10e-4,0.75809 h -1.109111 -1.1091 l 0.002,-0.72388 c 0.002,-0.79567 10e-4,-0.76777 0.0462,-0.94764 0.11709,-0.47134 0.50428,-0.86257 0.97634,-0.98643 0.18329,-0.0482 -0.0217,-0.0443 2.383161,-0.0443 2.04657,0 2.16677,5.8e-4 2.23065,0.0121 0.16037,0.0288 0.28013,0.0679 0.41127,0.13449 0.40188,0.20404 0.67047,0.57897 0.7431,1.03733 0.011,0.0732 0.0121,0.18337 0.0121,2.12858 0,1.94128 -6.7e-4,2.05543 -0.0121,2.12923 -0.0642,0.41155 -0.28135,0.75014 -0.62316,0.97243 -0.0692,0.045 -0.21771,0.11761 -0.29062,0.14214 -0.069,0.0233 -0.17157,0.0488 -0.25392,0.0631 -0.0633,0.011 -0.20314,0.0121 -2.17669,0.0121 -1.1599,4e-4 -2.125671,-1.9e-4 -2.146191,-0.001 z m -12.86018,-3.97497 c 1.21696,-0.48825 2.14427,-1.19279 2.90168,-2.20467 0.28059,-0.37487 0.51117,-0.75165 0.75319,-1.23076 0.22181,-0.43913 0.32946,-0.68787 0.68369,-1.57997 0.18011,-0.45365 0.24943,-0.61644 0.34356,-0.80695 0.1738,-0.35173 0.32258,-0.52878 0.47846,-0.56937 0.23531,-0.0614 0.44136,0.13979 0.69147,0.67501 0.079,0.16923 0.13789,0.30957 0.31625,0.75465 0.26788,0.66842 0.39101,0.95684 0.55167,1.2921 0.54865,1.14499 1.19084,1.98823 2.02413,2.65786 0.36922,0.29671 0.73318,0.52919 1.17311,0.74929 0.21631,0.10835 0.3345,0.16155 0.55266,0.24932 l 0.14921,0.0601 h -2.38014 -2.38013 l 0.75438,-0.75441 c 0.4149,-0.41492 0.75439,-0.75668 0.75439,-0.75947 0,-0.002 -0.95511,-0.004 -2.12247,-0.004 -1.16734,0 -2.12246,0.001 -2.12246,0.004 0,0.002 0.33948,0.34455 0.75438,0.75947 l 0.75438,0.75441 -2.37335,-2e-4 -2.37333,-1.9e-4 z m -0.3116,-0.52198 c 0.002,-0.002 0.0385,-0.0299 0.0777,-0.059 0.2621,-0.196 0.47176,-0.37938 0.73963,-0.64692 0.40032,-0.39984 0.63977,-0.68369 1.30148,-1.54296 0.40675,-0.52818 0.52578,-0.67776 0.70959,-0.8918 0.28588,-0.33285 0.53901,-0.58262 0.79158,-0.78098 0.0995,-0.0782 0.22036,-0.16468 0.22421,-0.16055 0.002,0.002 -0.14935,0.35839 -0.22327,0.52121 -0.0651,0.14354 -0.24761,0.50986 -0.31925,0.6408 -0.76262,1.394 -1.78813,2.32203 -3.18168,2.87919 -0.11667,0.0467 -0.13206,0.052 -0.11991,0.0411 z m 10.8425,-0.1088 c -0.14559,-0.0627 -0.18991,-0.0833 -0.3582,-0.16768 -1.09951,-0.55145 -1.9482,-1.37589 -2.60668,-2.53227 -0.2015,-0.35386 -0.42045,-0.80875 -0.60775,-1.26258 l -0.011,-0.0255 0.032,0.0216 c 0.19593,0.13328 0.4638,0.36701 0.65252,0.56909 0.3057,0.32734 0.47101,0.53223 1.01717,1.26063 0.40914,0.5457 0.51871,0.68664 0.74596,0.95952 0.38819,0.46613 0.79858,0.87288 1.17291,1.16252 0.0699,0.054 0.0789,0.0615 0.0743,0.0614 -10e-4,0 -0.052,-0.0211 -0.11155,-0.0467 z"
       id="path395" />
    <path
       d="m 74.493484,84.650355 v -9.081901 h 2.41761 q 0.857309,0 1.405987,0.08302 0.548676,0.08302 0.8916,0.249047 0.788717,0.348666 1.234518,1.062603 0.462947,0.697332 0.462947,1.560695 0,1.095804 -0.72014,1.892748 -0.788724,0.879961 -1.98895,0.879961 l 2.640505,3.353832 h -1.320256 l -3.240619,-4.183979 q 1.663179,0 2.091832,-0.116224 0.702987,-0.182636 1.097356,-0.713938 0.394355,-0.531293 0.394355,-1.145609 0,-0.514697 -0.274332,-0.979588 -0.257193,-0.481488 -0.668701,-0.680721 -0.411508,-0.199238 -0.840162,-0.265649 -0.411509,-0.08302 -0.977332,-0.08302 h -1.560301 v 8.168722 z M 88.89624,81.495762 h -6.241199 q 0,0.863365 0.80587,1.577292 0.80587,0.713938 1.783202,0.713938 0.874455,0 1.560302,-0.464891 0.60011,-0.398472 0.857301,-1.112409 h 1.045917 q -0.394362,1.112409 -1.320256,1.776532 -0.925886,0.664131 -2.143264,0.664131 -1.474571,0 -2.55478,-1.012789 -1.063061,-1.012797 -1.063061,-2.507074 0,-1.444462 1.063061,-2.49046 1.063064,-1.062595 2.55478,-1.062595 1.080208,0 1.954656,0.531293 0.72014,0.481496 1.165941,1.195424 0.274338,0.415077 0.411508,0.929773 0.137168,0.498093 0.137168,0.962984 z m -6.241199,-0.896571 h 5.212429 q -0.171454,-0.996177 -0.994478,-1.610493 -0.720132,-0.531302 -1.628879,-0.531302 -0.857309,0 -1.594593,0.531302 -0.823016,0.630921 -0.994479,1.610493 z m 7.355686,4.051164 v -6.757462 h 0.99448 v 0.747139 q 0.188605,-0.282248 0.634405,-0.531302 0.634406,-0.381867 1.440276,-0.381867 0.702994,0 1.200231,0.19924 0.514385,0.182627 0.994478,0.647518 0.445797,0.365271 0.668695,0.979579 0.222907,0.614318 0.222907,1.378052 v 3.719103 h -1.011621 v -3.719103 q 0,-0.630905 -0.171465,-1.045982 -0.154315,-0.415084 -0.445802,-0.697332 -0.291485,-0.298861 -0.720139,-0.431682 -0.411505,-0.149426 -0.737284,-0.149426 -0.360067,0 -0.737283,0.132822 -0.377215,0.13282 -0.720138,0.415076 -0.257193,0.282255 -0.445799,0.713929 -0.171461,0.43169 -0.171461,1.012789 v 3.768909 z m 7.287105,-3.470056 q 0,-1.577285 1.131642,-2.606678 1.063064,-0.996184 2.486186,-0.996184 1.52601,0 2.58908,1.062595 1.08019,1.062603 1.08019,2.457251 0,1.427874 -1.06305,2.490468 -1.04592,1.062604 -2.60622,1.062604 -1.474552,0 -2.554771,-1.045998 -1.063057,-1.045999 -1.063057,-2.424058 z m 0.994481,-0.01654 q 0,1.095804 0.788718,1.859547 0.805857,0.763743 1.868919,0.763743 1.02877,0 1.8175,-0.697332 0.82302,-0.796944 0.82302,-2.008973 0,-1.195425 -0.87446,-1.925958 -0.80587,-0.697333 -1.76606,-0.697333 -1.011602,0 -1.783189,0.680736 -0.874448,0.813541 -0.874448,2.02557 z"
       id="path396"
       style="font-size:72.6084px;font-family:NATS;-inkscape-font-specification:'NATS, Normal';fill:#000000;fill-opacity:1;stroke-width:0.20769;stroke-linecap:square"
       aria-label="Reno" />
  </g>
</svg>
