<?xml version="1.0" encoding="UTF-8" standalone="no"?>
<!-- Created with Inkscape (http://www.inkscape.org/) -->

<svg
   width="600"
   height="335"
   viewBox="0 0 125.07995 69.790572"
   version="1.1"
   id="svg1"
   xmlns="http://www.w3.org/2000/svg"
   xmlns:svg="http://www.w3.org/2000/svg">
  <defs
     id="defs1" />
  <g
     id="layer1"
     transform="translate(-44.431329,-180.1344)">
    <path
       style="fill:#ffffff;fill-opacity:1;stroke-width:0.0186677"
       d="m 106.80511,249.92155 c -1.26817,-0.0434 -2.31844,-0.7268 -3.35833,-2.18472 -0.54723,-0.76717 -1.10915,-1.77912 -1.76489,-3.17836 -0.19157,-0.40858 -0.41447,-0.90205 -0.66209,-1.46502 -0.17148,-0.38987 -0.23749,-0.54244 -0.91569,-2.11588 -0.538322,-1.24889 -0.834622,-1.92238 -1.192952,-2.71161 -1.199791,-2.64269 -2.321952,-4.7566 -3.543561,-6.67531 -1.216047,-1.91003 -2.544961,-3.63089 -3.972425,-5.1441 -0.376697,-0.3993 -0.889973,-0.91257 -1.286975,-1.28687 -2.469873,-2.32877 -5.316443,-4.21559 -8.521663,-5.64855 -2.187136,-0.97775 -4.531694,-1.74676 -7.083688,-2.32335 l -0.192652,-0.0434 h 15.263811 15.263785 l -3.41664,3.41419 -3.416642,3.41423 8.919632,0.002 c 4.90581,0.001 8.92033,0.002 8.92115,0.002 9e-4,0 -1.53614,-1.53781 -3.41546,-3.41657 l -3.41692,-3.41584 15.27193,9e-4 c 8.39957,0 15.2675,0.001 15.26208,0.002 -0.003,0.001 -0.11331,0.0251 -0.23965,0.0542 -1.38889,0.31356 -2.75268,0.69736 -4.04522,1.1378 -4.14308,1.4119 -7.73016,3.45779 -10.78962,6.15386 -1.05831,0.93259 -2.07611,1.96539 -3.01081,3.05512 -2.15944,2.51761 -4.0149,5.44739 -5.79323,9.14737 -0.62012,1.29027 -1.08432,2.32658 -2.10168,4.69224 -0.69495,1.61595 -0.92808,2.14735 -1.24468,2.83756 -0.33831,0.73779 -0.67763,1.42661 -0.95699,1.94358 -0.96413,1.78417 -1.84844,2.8324 -2.8339,3.3592 -0.52742,0.28199 -1.11008,0.41483 -1.72617,0.39369 z m -8.720452,-10.56734 c -0.339388,-0.30064 -0.812913,-0.76809 -1.173036,-1.15742 -0.80344,-0.86844 -1.612512,-1.89084 -2.567957,-3.24504 -0.425918,-0.60365 -0.802866,-1.15592 -1.597911,-2.34115 -1.152117,-1.71756 -1.568134,-2.32573 -2.140497,-3.12899 -1.64907,-2.31443 -3.119369,-4.04944 -4.727613,-5.5788 -0.905756,-0.86134 -1.869884,-1.65879 -2.871969,-2.37545 -0.124131,-0.089 -0.13561,-0.0976 -0.108702,-0.0839 0.03982,0.0215 0.264047,0.13992 0.390186,0.20844 2.822784,1.53886 5.280065,3.45238 7.460814,5.80974 1.142825,1.23542 2.225631,2.61994 3.227356,4.12666 1.282849,1.92961 2.447487,4.06104 3.679858,6.73458 0.198035,0.4295 0.490311,1.07714 0.487481,1.07993 -9e-4,9e-4 -0.0287,-0.0216 -0.0581,-0.0485 z m 17.634882,0.007 c 0.001,-0.002 0.0513,-0.11261 0.1109,-0.24574 1.08417,-2.41467 2.05159,-4.30034 3.09981,-6.04218 1.69443,-2.81554 3.58551,-5.18385 5.73738,-7.18514 1.70277,-1.58363 3.586,-2.95044 5.63807,-4.09189 0.25256,-0.14029 0.55356,-0.30279 0.54334,-0.29312 -0.002,0.002 -0.066,0.0488 -0.14063,0.10298 -1.40932,1.01985 -2.7797,2.24461 -4.07008,3.63753 -1.15672,1.24866 -2.27533,2.6514 -3.53693,4.43532 -0.49713,0.70292 -0.91232,1.30973 -1.83176,2.67703 -0.8299,1.23423 -1.12969,1.67469 -1.53289,2.25228 -1.48739,2.13078 -2.6612,3.53058 -3.91094,4.66386 -0.0908,0.0822 -0.11411,0.10194 -0.10618,0.089 z m -25.21452,-7.8849 c -1.289665,-0.97984 -2.471201,-2.08586 -3.98552,-3.7308 -0.316067,-0.34369 -0.674897,-0.7417 -1.283639,-1.42499 -0.868841,-0.97525 -1.219025,-1.36418 -1.605193,-1.78303 -1.056365,-1.14566 -1.980455,-2.05536 -2.860202,-2.81568 -0.337592,-0.29167 -0.687167,-0.57879 -0.995017,-0.81697 -0.120542,-0.0932 -0.119825,-0.0925 -0.07892,-0.0707 2.520674,1.36561 4.70806,3.08708 6.764213,5.32347 1.286723,1.39951 2.526306,2.99857 4.045003,5.21797 0.05382,0.079 0.107623,0.15713 0.119826,0.17398 0.01079,0.0179 0.02152,0.0323 0.01794,0.0323 -0.0013,0 -0.06422,-0.047 -0.139915,-0.10435 z m 32.71914,0.0685 c 0.002,-0.003 0.0689,-0.0994 0.14709,-0.21382 1.45179,-2.11629 2.61492,-3.62723 3.83251,-4.97861 0.62733,-0.69623 1.31453,-1.39054 1.96585,-1.98622 1.32307,-1.20999 2.7284,-2.24964 4.23512,-3.13312 0.29776,-0.17471 0.77132,-0.43951 0.75346,-0.4215 -0.002,0.002 -0.0459,0.037 -0.0961,0.0756 -0.87057,0.6741 -1.81866,1.52691 -2.73583,2.46094 -0.55755,0.56778 -0.97969,1.01874 -1.70482,1.82117 -0.13094,0.14494 -0.5353,0.59769 -0.93069,1.04216 -0.61907,0.69585 -0.99688,1.11623 -1.31611,1.4643 -1.52946,1.6678 -2.71497,2.78146 -4.02394,3.78017 -0.11516,0.0879 -0.13919,0.10481 -0.12628,0.0886 z m -73.543171,-3.48424 c -1.62288,-0.0506 -3.12414,-0.81527 -4.119695,-2.0983 -0.387855,-0.49985 -0.696029,-1.0903 -0.882941,-1.69165 -0.133459,-0.42969 -0.206287,-0.82798 -0.238934,-1.30642 -0.01079,-0.13848 -0.01079,-15.66164 0,-15.80045 0.03982,-0.58858 0.147809,-1.09098 0.346919,-1.61756 0.327906,-0.86676 0.897579,-1.65754 1.622415,-2.252 0.832606,-0.68279 1.833005,-1.09638 2.909173,-1.2026 0.116596,-0.0103 0.207003,-0.0179 0.350507,-0.0215 0.185119,-0.007 15.987895,-0.007 16.173372,0 1.289271,0.047 2.473713,0.52188 3.435185,1.37723 0.09722,0.0865 0.351584,0.34262 0.438582,0.44188 0.177945,0.2027 0.311045,0.37616 0.45749,0.59604 0.516899,0.77625 0.819332,1.66396 0.889362,2.61036 0.01435,0.18477 0.01435,0.41272 0.01435,3.066 v 2.74992 h -7.91877 c -5.342919,0 -7.94844,0.001 -8.01011,0.003 -0.377737,0.0215 -0.705427,0.0814 -1.013099,0.18691 -0.769034,0.26405 -1.300105,0.8018 -1.461438,1.47978 -0.03229,0.14278 -0.04664,0.25723 -0.04664,0.41738 0,0.16539 0.01435,0.27553 0.04914,0.42807 0.12413,0.51913 0.473023,0.97517 0.980093,1.28081 0.424698,0.25579 0.95071,0.40119 1.556079,0.42967 0.07067,0.003 2.750494,0.003 7.985427,0.003 h 7.879234 v 2.78694 c 0,1.76606 -0.0018,2.83308 -0.0036,2.91286 -0.03588,0.89458 -0.275526,1.7377 -0.712853,2.50056 -0.353377,0.61623 -0.830849,1.16248 -1.398512,1.59995 -0.479697,0.36967 -1.031754,0.66108 -1.610181,0.85 -0.485759,0.15857 -0.966351,0.24396 -1.494122,0.26513 -0.104753,0.003 -16.041277,0.007 -16.175812,0.002 z m 98.356421,0 c -0.0179,-8.9e-4 -0.0663,-0.003 -0.11124,-0.007 -1.48616,-0.0954 -2.8574,-0.7916 -3.81235,-1.93572 -0.61681,-0.739 -1.02225,-1.62377 -1.1805,-2.57613 -0.0287,-0.17472 -0.0481,-0.33903 -0.0657,-0.57046 -0.003,-0.0577 -0.007,-0.78637 -0.007,-2.95242 l -0.001,-2.87584 h 4.40338 4.40339 l 9e-4,1.54967 c 0,0.85234 0.002,2.21543 0.003,3.02914 l 0.003,1.47948 4.4255,-2.9354 c 2.43403,-1.61445 4.49331,-2.98024 4.57615,-3.03514 0.0829,-0.0549 0.32969,-0.21848 0.54826,-0.36353 0.21884,-0.14493 0.52428,-0.34763 0.67912,-0.45048 0.15497,-0.10263 0.50546,-0.33509 0.77911,-0.5168 0.27373,-0.18153 0.6666,-0.44217 0.87322,-0.57914 0.20665,-0.13705 0.37644,-0.25041 0.37734,-0.25185 8.9e-4,-0.001 -0.43876,-0.29526 -0.97698,-0.65225 -0.53824,-0.35733 -1.2131,-0.80514 -1.49968,-0.99546 -0.28664,-0.19014 -0.64651,-0.42925 -0.79982,-0.53103 -0.15318,-0.10194 -2.23592,-1.4844 -4.62802,-3.07251 l -4.34926,-2.88751 -0.003,0.75375 c -0.002,0.41458 -0.007,1.75953 -0.007,2.98878 l -0.003,2.23496 -4.40215,0.001 -4.40215,0.001 0.001,-2.83879 c 0.001,-2.15401 0.003,-2.85668 0.007,-2.91289 0.0323,-0.40802 0.0699,-0.65165 0.14889,-0.97794 0.17795,-0.73302 0.52508,-1.44642 0.99459,-2.04378 0.90255,-1.14832 2.21655,-1.87979 3.6656,-2.04058 0.0976,-0.0103 0.235,-0.0215 0.35266,-0.0287 0.14064,-0.007 16.16857,-0.007 16.3124,0 0.44137,0.0215 0.85334,0.0897 1.26667,0.20915 1.43833,0.41594 2.64684,1.41996 3.32131,2.75918 0.2497,0.49612 0.41502,1.00162 0.50584,1.54844 0.0287,0.17507 0.0456,0.31248 0.0635,0.53344 0.007,0.0972 0.007,0.58017 0.0103,7.85329 10e-4,5.43534 0,7.78851 -0.003,7.87988 -0.0251,0.58904 -0.13274,1.14096 -0.33113,1.67745 -0.56898,1.53903 -1.80843,2.73984 -3.36207,3.25723 -0.42854,0.14279 -0.82482,0.22208 -1.32765,0.26549 -0.0933,0.007 -0.56429,0.007 -8.25834,0.0103 -4.4877,0 -8.17284,0 -8.18917,-9e-4 z m -16.26245,-3.5012 c 0.0215,-0.0216 0.15068,-0.15605 0.28987,-0.29885 0.46805,-0.48047 0.9561,-0.95088 1.41678,-1.36546 1.40712,-1.26631 2.80922,-2.25071 4.35389,-3.05684 0.14781,-0.0771 0.40852,-0.2063 0.39514,-0.19553 -0.007,0.007 -0.0778,0.0577 -0.15822,0.11696 -0.61121,0.44888 -1.12116,0.85087 -2.27696,1.79491 -1.57771,1.28869 -2.28117,1.83213 -3.19338,2.46703 -0.22926,0.15965 -0.7938,0.5371 -0.85675,0.57294 -0.003,0.002 0.0103,-0.0144 0.0287,-0.0359 z m -50.014033,-0.20342 c -0.137046,-0.0918 -0.282702,-0.19014 -0.323601,-0.21811 -0.738791,-0.51052 -1.394099,-1.00267 -2.259676,-1.69698 -0.281267,-0.22566 -0.43234,-0.34835 -1.0545,-0.85728 -1.127792,-0.92233 -1.52092,-1.23485 -2.079399,-1.65306 -0.114086,-0.0854 -0.20844,-0.15642 -0.209875,-0.15785 -0.0036,-0.003 0.17077,0.0864 0.33831,0.17543 1.645661,0.87616 3.165649,1.98739 4.689764,3.42851 0.364929,0.34513 1.168762,1.1462 1.150071,1.1462 -8.96e-4,0 -0.114086,-0.075 -0.25113,-0.16682 z m -7.300056,-11.45601 c 0.02152,-0.003 0.134177,-0.0323 0.246827,-0.0564 2.441961,-0.55586 4.755129,-1.31574 6.87288,-2.25785 3.194961,-1.42132 6.001277,-3.26849 8.473052,-5.57711 0.352301,-0.32934 0.857684,-0.82826 1.190433,-1.17594 1.41071,-1.47382 2.704465,-3.11409 3.887973,-4.92924 1.327945,-2.03663 2.507113,-4.23733 3.792432,-7.07787 0.38685,-0.85492 0.65431,-1.46801 1.410282,-3.23265 0.53771,-1.25527 0.71462,-1.66343 0.9482,-2.18808 0.64631,-1.45142 1.15144,-2.45919 1.64398,-3.27962 0.75877,-1.26401 1.50047,-2.08564 2.29505,-2.54246 0.0929,-0.0535 0.30064,-0.15678 0.38524,-0.19157 0.3566,-0.14674 0.70435,-0.22745 1.0866,-0.25149 0.10481,-0.007 0.35445,-0.007 0.45935,0 1.301,0.0822 2.36835,0.84542 3.44707,2.46438 0.56859,0.85339 1.13456,1.92797 1.85851,3.52876 0.27122,0.59952 0.50097,1.12585 1.10548,2.53164 0.78593,1.82762 1.12908,2.60631 1.57692,3.57844 0.53904,1.16995 1.09648,2.29759 1.62249,3.28206 0.89119,1.66787 1.8193,3.1777 2.80097,4.55641 1.47389,2.07004 3.0912,3.87851 4.8856,5.46297 2.81978,2.48993 6.09603,4.43027 9.8339,5.82412 1.48964,0.55546 3.04662,1.02339 4.6959,1.41124 0.0875,0.0216 0.24324,0.0564 0.34584,0.0793 0.10263,0.0215 0.19302,0.0437 0.20127,0.0463 0.007,0.002 -6.00207,0.003 -15.2176,0.003 h -15.23246 l 3.38728,-3.38561 3.38727,-3.3856 h -8.92162 -8.921642 l 3.385822,3.38579 3.38581,3.38581 -15.180575,-8.9e-4 c -15.170068,-9e-4 -15.180544,-9e-4 -15.138605,-0.0103 z m 63.717929,-2.50762 c -0.20378,-0.0972 -0.6961,-0.35966 -1.00019,-0.53293 -1.70022,-0.96869 -3.24614,-2.18255 -4.90225,-3.84934 -0.24575,-0.24718 -0.49753,-0.50542 -0.52353,-0.5367 -0.0179,-0.0215 0.0287,0.007 0.38537,0.24647 1.02181,0.6808 1.87049,1.3232 3.42776,2.59461 0.80147,0.6543 0.98081,0.79978 1.28913,1.04574 0.47123,0.37583 0.87734,0.68814 1.22247,0.94013 0.1313,0.0957 0.15857,0.11659 0.15283,0.11588 -0.001,0 -0.0251,-0.0103 -0.0517,-0.0251 z m -62.421375,-0.0535 c 0.0026,-0.002 0.05274,-0.0402 0.111216,-0.0829 0.556758,-0.40823 1.069783,-0.81459 2.338711,-1.85244 0.661013,-0.54062 0.918422,-0.74906 1.232337,-0.99782 0.81761,-0.64789 1.461115,-1.1237 2.17856,-1.61078 0.150679,-0.10229 0.386634,-0.25831 0.406007,-0.26872 0.0287,-0.0144 -0.659541,0.67942 -0.937364,0.94677 -0.627182,0.60357 -1.189715,1.10131 -1.778115,1.5734 -1.007072,0.80799 -2.048332,1.49821 -3.1339,2.07743 -0.181532,0.0969 -0.424016,0.22172 -0.417343,0.2149 z m 3.667338,-0.90626 c 0.0036,-0.003 0.05417,-0.0424 0.111215,-0.0854 1.208694,-0.91203 2.424347,-2.03391 3.805281,-3.51156 0.479767,-0.51342 0.800605,-0.86773 1.773487,-1.95839 0.700081,-0.78489 0.922763,-1.03241 1.266346,-1.4077 1.164028,-1.27133 2.105339,-2.19965 3.055474,-3.01321 0.327906,-0.28091 0.652905,-0.54413 0.987842,-0.80043 0.118749,-0.0908 0.270863,-0.20486 0.285931,-0.21382 0.01079,-0.007 -0.145656,0.22351 -0.435677,0.64419 -1.184908,1.71914 -2.175403,3.02028 -3.195892,4.19829 -2.255767,2.60388 -4.670247,4.56256 -7.453711,6.04667 -0.177586,0.0947 -0.210233,0.11124 -0.200187,0.10148 z m 54.642167,-0.2393 c -0.70185,-0.38824 -1.25368,-0.72221 -1.84973,-1.11949 -1.90357,-1.26883 -3.63936,-2.80912 -5.2971,-4.7005 -1.12432,-1.28278 -2.20569,-2.70435 -3.56367,-4.68481 -0.11945,-0.17436 -0.1191,-0.17364 -0.11089,-0.16754 0.003,0.003 0.0395,0.0287 0.0785,0.0589 0.55044,0.41196 1.24232,0.99517 1.8423,1.55299 0.52741,0.49033 1.15563,1.11944 1.7436,1.74619 0.4929,0.52537 0.87045,0.94228 1.84718,2.03987 1.3169,1.47984 1.81951,2.0253 2.57728,2.79695 0.90778,0.92434 1.83438,1.75813 2.71261,2.44081 0.0976,0.0756 0.10194,0.0793 0.0986,0.079 -0.001,0 -0.0366,-0.0179 -0.079,-0.0427 z m -3.23515,-0.6468 c -2.21192,-1.17823 -4.15636,-2.54611 -5.97383,-4.20249 -0.58162,-0.53003 -1.23209,-1.17778 -1.791,-1.78339 -1.50997,-1.63631 -2.89561,-3.50816 -4.1734,-5.6379 -0.98349,-1.63923 -1.90923,-3.43432 -2.91649,-5.65536 -0.14817,-0.32718 -0.26943,-0.5988 -0.268,-0.60049 0.002,-0.002 0.16899,0.14817 0.315,0.2845 1.05783,0.98719 2.09153,2.20851 3.31098,3.9119 0.49036,0.68498 0.92818,1.32329 1.90236,2.77335 1.01482,1.51059 1.47539,2.18215 2.03415,2.966 1.25171,1.75587 2.37825,3.15051 3.55659,4.40305 0.24935,0.26511 0.68645,0.70847 0.96352,0.97747 0.93776,0.91046 1.90942,1.72896 2.94444,2.48031 0.081,0.0588 0.14852,0.10803 0.1496,0.10906 0.003,0.003 -0.007,0 -0.0538,-0.0251 z m -47.761923,0.0144 c 0,-0.001 0.04377,-0.0323 0.09758,-0.0728 0.128076,-0.0925 0.473526,-0.35086 0.613692,-0.45882 1.418746,-1.09364 2.761543,-2.36594 4.05555,-3.84266 1.058553,-1.20797 2.086468,-2.54711 3.294587,-4.29215 0.414438,-0.59855 0.693301,-1.01123 1.653985,-2.44735 0.805413,-1.20406 1.136726,-1.69144 1.542733,-2.26957 1.237322,-1.7619 2.216446,-2.95678 3.268147,-3.98836 0.181532,-0.1783 0.539467,-0.51144 0.566907,-0.52798 0.007,-0.003 0.0143,-0.0215 -0.10906,0.25616 -1.215971,2.7224 -2.294758,4.79606 -3.490751,6.70989 -1.312231,2.09992 -2.768827,3.97418 -4.331651,5.57385 -0.05561,0.0571 -0.13023,0.13346 -0.165388,0.1697 -0.147091,0.15139 -0.602499,0.59263 -0.842041,0.81599 -1.793865,1.67264 -3.796599,3.10592 -5.998659,4.29305 -0.145655,0.0785 -0.155701,0.0836 -0.155701,0.0807 z"
       id="path17" />
    <path
       d="m 129.27197,249.92498 v -12.14463 h 3.23291 q 1.14643,0 1.88014,0.11101 0.73372,0.11101 1.19228,0.33303 1.0547,0.46625 1.65084,1.42095 0.61906,0.9325 0.61906,2.08701 0,1.46536 -0.96299,2.53105 -1.05471,1.17672 -2.6597,1.17672 l 3.53098,4.48486 h -1.7655 l -4.33346,-5.59497 q 2.22406,0 2.79728,-0.15541 0.94005,-0.24423 1.46741,-0.95471 0.52735,-0.71046 0.52735,-1.53194 0,-0.68826 -0.36684,-1.30994 -0.34393,-0.64385 -0.89422,-0.91028 -0.55028,-0.26643 -1.12349,-0.35523 -0.55029,-0.11101 -1.30692,-0.11101 h -2.08648 v 10.92349 z m 19.25986,-4.21843 h -8.34595 q 0,1.15451 1.07764,2.1092 1.07764,0.95471 2.38456,0.95471 1.16936,0 2.08649,-0.62168 0.80249,-0.53284 1.1464,-1.48754 h 1.39865 q -0.52736,1.48754 -1.76548,2.37564 -1.23814,0.8881 -2.86606,0.8881 -1.97185,0 -3.41635,-1.35434 -1.42155,-1.35435 -1.42155,-3.35254 0,-1.9316 1.42155,-3.33034 1.42159,-1.42094 3.41635,-1.42094 1.44449,0 2.61383,0.71046 0.963,0.64388 1.55915,1.59857 0.36685,0.55505 0.55028,1.24333 0.1834,0.66605 0.1834,1.28773 z m -8.34595,-1.19893 h 6.97024 q -0.22927,-1.33211 -1.32985,-2.15361 -0.96298,-0.71047 -2.17819,-0.71047 -1.14643,0 -2.13235,0.71047 -1.10056,0.84369 -1.32985,2.15361 z m 9.83629,5.41736 v -9.03631 h 1.32985 v 0.99909 q 0.2522,-0.37742 0.84834,-0.71048 0.84836,-0.51063 1.926,-0.51063 0.94005,0 1.60497,0.26642 0.68786,0.24421 1.32986,0.86589 0.59612,0.48845 0.8942,1.30993 0.29808,0.82148 0.29808,1.84278 v 4.97331 h -1.35276 v -4.97331 q 0,-0.84367 -0.22931,-1.39873 -0.20635,-0.55506 -0.59614,-0.93249 -0.38979,-0.39966 -0.96299,-0.57726 -0.55028,-0.19983 -0.98591,-0.19983 -0.48151,0 -0.98593,0.17763 -0.50442,0.17761 -0.96298,0.55504 -0.34395,0.37745 -0.59616,0.95469 -0.22927,0.57728 -0.22927,1.35434 v 5.03992 z m 9.74456,-4.64029 q 0,-2.10918 1.51325,-3.48573 1.42159,-1.33214 3.32463,-1.33214 2.04063,0 3.46221,1.42094 1.44446,1.42096 1.44446,3.28594 0,1.90939 -1.42154,3.33032 -1.39864,1.42096 -3.48513,1.42096 -1.97182,0 -3.41633,-1.39874 -1.42155,-1.39876 -1.42155,-3.24155 z m 1.32985,-0.022 q 0,1.46536 1.05469,2.48665 1.07763,1.02131 2.49919,1.02131 1.37572,0 2.43042,-0.93249 1.10058,-1.06571 1.10058,-2.68648 0,-1.59856 -1.16936,-2.57546 -1.07764,-0.93249 -2.36164,-0.93249 -1.35274,0 -2.38454,0.9103 -1.16934,1.08789 -1.16934,2.70866 z"
       id="path18"
       style="font-size:72.6084px;font-family:NATS;-inkscape-font-specification:'NATS, Normal';fill:#ffffff;fill-opacity:1;stroke-width:0.27773;stroke-linecap:square"
       aria-label="Reno" />
  </g>
</svg>
